# xmcd
#
# Track frame offsets: 
#        150
#        11387
#        23587
#        38002
#        49545
#        61068
#        79289
#        94251
#        104729
#        117845
#        137138
#        151031
#        163564
#
# Disc length: 2403 seconds
#
# Revision: 0
# Processed by: cddbd v1.5.2PL0 Copyright (c) Steve Scherf et al.
# Submitted via: ExactAudioCopy v0.99pb3
#
DISCID=9509610d
DTITLE=Otis Redding - Stax Profiles: Otis Redding
DYEAR=2006
DGENRE=Blues
TTITLE0=Security
TTITLE1=Happy Song (Dum Dum) (Alternate)
TTITLE2=My Love's Prayer
TTITLE3=Shake
TTITLE4=Mr. Pitiful (Alternate)
TTITLE5=Good To Me
TTITLE6=A Woman, A Lover, A Friend (Alternate)
TTITLE7=Direct Me (Alternate)
TTITLE8=(I Can't Get No) Satisfaction (Alternate)
TTITLE9=A Change Is Gonna Come
TTITLE10=Champagne And Wine (Alternate)
TTITLE11=I'm Sick Y'all
TTITLE12=I've Got Dreams To Remember
EXTD=
EXTT0=
EXTT1=
EXTT2=
EXTT3=
EXTT4=
EXTT5=
EXTT6=
EXTT7=
EXTT8=
EXTT9=
EXTT10=
EXTT11=
EXTT12=
PLAYORDER=
